# xmcd
#
# Track frame offsets: 
#        150
#        19807
#        34590
#        55802
#        76550
#        96240
#        112880
#        137885
#        159452
#        180670
#
# Disc length: 2698 seconds
#
# Revision: 0
# Processed by: cddbd v1.5.2PL0 Copyright (c) Steve Scherf et al.
# Submitted via: ExactAudioCopy v1.0b3
#
DISCID=710a880a
DTITLE=Various Artist - Ba Thang Ta Tu
DYEAR=1994
DGENRE=
TTITLE0=Phi Nhung - Nhung dom mat hoa chau
TTITLE1=Phuong Lam - Chuyen tinh be nho
TTITLE2=My Huyen - Cho nguoi tinh lo
TTITLE3=Tuan Vu - Bong nho duong chieu
TTITLE4=Dai Trang - Gia tu dem mua
TTITLE5=Tuan Vu - Mai lo minh xa nhau
TTITLE6=Phi Nhung - Ba thang ta tu
TTITLE7=Phuong Lam - Chuyen tinh Mong Thuong
TTITLE8=Dai Trang - Em chet theo ngay vu qui
TTITLE9=My Huyen - Tra lai anh
EXTD=
EXTT0=
EXTT1=
EXTT2=
EXTT3=
EXTT4=
EXTT5=
EXTT6=
EXTT7=
EXTT8=
EXTT9=
PLAYORDER=
